<svg width="48" height="48" viewBox="0 0 48 48" fill="none" xmlns="http://www.w3.org/2000/svg">
<rect width="48" height="48" rx="24" fill="#0F141A"/>
<path d="M24 13.3333V34.6667M18.6667 29.6569L20.2293 30.8284C22.3111 32.3911 25.6871 32.3911 27.7707 30.8284C29.8542 29.2658 29.8542 26.7342 27.7707 25.1716C26.7307 24.3893 25.3653 24 24 24C22.7111 24 21.4222 23.6089 20.4391 22.8284C18.4729 21.2658 18.4729 18.7342 20.4391 17.1716C22.4053 15.6089 25.5947 15.6089 27.5609 17.1716L28.2987 17.7582M40 24C40 26.1012 39.5861 28.1817 38.7821 30.1229C37.978 32.0641 36.7994 33.828 35.3137 35.3137C33.828 36.7994 32.0641 37.978 30.1229 38.7821C28.1817 39.5861 26.1012 40 24 40C21.8989 40 19.8183 39.5861 17.8771 38.7821C15.9359 37.978 14.172 36.7994 12.6863 35.3137C11.2006 33.828 10.022 32.0641 9.21793 30.1229C8.41385 28.1817 8 26.1012 8 24C8 19.7565 9.68571 15.6869 12.6863 12.6863C15.6869 9.68571 19.7565 8 24 8C28.2435 8 32.3131 9.68571 35.3137 12.6863C38.3143 15.6869 40 19.7565 40 24Z" stroke="#57E140" stroke-width="1.5" stroke-linecap="round" stroke-linejoin="round"/>
</svg>
